# xmcd CD database file
#
# Track frame offsets:
#	150
#	18106
#	34090
#	46179
#	59355
#	85907
#	106706
#	127890
#	152258
#	166859
#	189158
#	206459
#	238992
#	256701
#
# Disc length: 3839 seconds
#
# Revision: 0
# Processed by: cddbd v1.5.1PL0 Copyright (c) Steve Scherf et al.
# Submitted via: CDex 1.50beta10
#
DISCID=9b0efd0e
DTITLE=Diesel - Singled Out
DYEAR=2004
DGENRE=Blues
TTITLE0=Don't Need Love
TTITLE1=She Won't Need Words
TTITLE2=Everybody's Talkin'
TTITLE3=Would I Want You
TTITLE4=Tip Of My Tongue
TTITLE5=One More Time
TTITLE6=Soul Revival
TTITLE7=15 Feet Of Snow
TTITLE8=Come Around
TTITLE9=All Come Together
TTITLE10=Darling of the Universe
TTITLE11=Come To Me
TTITLE12=Faith And Gasoline
TTITLE13=Cry In Shame
EXTD=YEAR: 2004
EXTT0=
EXTT1=
EXTT2=
EXTT3=
EXTT4=
EXTT5=
EXTT6=
EXTT7=
EXTT8=
EXTT9=
EXTT10=
EXTT11=
EXTT12=
EXTT13=
PLAYORDER=
